<svg width="18" height="49" viewBox="0 0 18 49" fill="none" xmlns="http://www.w3.org/2000/svg">
<path d="M11.0621 12.5345C11.3843 11.6639 12.6157 11.6639 12.9379 12.5345L13.461 13.9482C13.5623 14.2219 13.7781 14.4377 14.0518 14.539L15.4655 15.0621C16.3361 15.3843 16.3361 16.6157 15.4655 16.9379L14.0518 17.461C13.7781 17.5623 13.5623 17.7781 13.461 18.0518L12.9379 19.4655C12.6157 20.3361 11.3843 20.3361 11.0621 19.4655L10.539 18.0518C10.4377 17.7781 10.2219 17.5623 9.94821 17.461L8.53451 16.9379C7.66389 16.6157 7.66389 15.3843 8.53451 15.0621L9.94821 14.539C10.2219 14.4377 10.4377 14.2219 10.539 13.9482L11.0621 12.5345Z" fill="url(#paint0_linear_38_39)"/>
<path d="M7.06215 2.5345C7.38431 1.66389 8.61569 1.66389 8.93785 2.53451L10.0012 5.40803C10.1024 5.68175 10.3182 5.89756 10.592 5.99885L13.4655 7.06215C14.3361 7.38431 14.3361 8.61569 13.4655 8.93785L10.592 10.0012C10.3182 10.1024 10.1024 10.3182 10.0012 10.592L8.93785 13.4655C8.61569 14.3361 7.38431 14.3361 7.06215 13.4655L5.99885 10.592C5.89756 10.3182 5.68175 10.1024 5.40803 10.0012L2.5345 8.93785C1.66389 8.61569 1.66389 7.38431 2.53451 7.06215L5.40803 5.99885C5.68175 5.89756 5.89756 5.68175 5.99885 5.40803L7.06215 2.5345Z" fill="url(#paint1_linear_38_39)"/>
<path d="M14 49H10C9.44772 49 9 48.5523 9 48V24C9 23.4477 9.44772 23 10 23H14C14.5523 23 15 23.4477 15 24V48C15 48.5523 14.5523 49 14 49Z" fill="#333333"/>
<mask id="path-4-inside-1_38_39" fill="white">
<path d="M9 24C9 23.4477 9.44772 23 10 23H14C14.5523 23 15 23.4477 15 24V26C15 26.5523 14.5523 27 14 27H10C9.44772 27 9 26.5523 9 26V24Z"/>
</mask>
<path d="M9 24C9 23.4477 9.44772 23 10 23H14C14.5523 23 15 23.4477 15 24V26C15 26.5523 14.5523 27 14 27H10C9.44772 27 9 26.5523 9 26V24Z" fill="white"/>
<path d="M8 24C8 22.8954 8.89543 22 10 22H14C15.1046 22 16 22.8954 16 24H14H10H8ZM15 27H9H15ZM10 27C8.89543 27 8 26.1046 8 25V24C8 22.8954 8.89543 22 10 22V24V26C10 26.5523 10 27 10 27ZM14 22C15.1046 22 16 22.8954 16 24V25C16 26.1046 15.1046 27 14 27C14 27 14 26.5523 14 26V24V22Z" fill="#333333" mask="url(#path-4-inside-1_38_39)"/>
<defs>
<linearGradient id="paint0_linear_38_39" x1="7.5" y1="11.5" x2="23" y2="23.5" gradientUnits="userSpaceOnUse">
<stop offset="0.0536041" stop-color="#1A3481"/>
<stop offset="0.477169" stop-color="#305DDD"/>
</linearGradient>
<linearGradient id="paint1_linear_38_39" x1="8" y1="-7.26432e-07" x2="40.5" y2="29.5" gradientUnits="userSpaceOnUse">
<stop stop-color="#1C2F66"/>
<stop offset="0.277731" stop-color="#305DDD"/>
</linearGradient>
</defs>
</svg>
