<svg width="195" height="88" viewBox="0 0 195 88" fill="none" xmlns="http://www.w3.org/2000/svg">
<path d="M2.376 49V23.8H11.196L15.552 45.76H16.2L20.556 23.8H29.376V49H24.768V27.292H24.12L19.8 49H11.952L7.632 27.292H6.984V49H2.376ZM42.7621 49.504C40.9861 49.504 39.3901 49.144 37.9741 48.424C36.5581 47.704 35.4421 46.66 34.6261 45.292C33.8101 43.924 33.4021 42.28 33.4021 40.36V39.784C33.4021 37.864 33.8101 36.22 34.6261 34.852C35.4421 33.484 36.5581 32.44 37.9741 31.72C39.3901 31 40.9861 30.64 42.7621 30.64C44.5381 30.64 46.1341 31 47.5501 31.72C48.9661 32.44 50.0821 33.484 50.8981 34.852C51.7141 36.22 52.1221 37.864 52.1221 39.784V40.36C52.1221 42.28 51.7141 43.924 50.8981 45.292C50.0821 46.66 48.9661 47.704 47.5501 48.424C46.1341 49.144 44.5381 49.504 42.7621 49.504ZM42.7621 45.472C44.1541 45.472 45.3061 45.028 46.2181 44.14C47.1301 43.228 47.5861 41.932 47.5861 40.252V39.892C47.5861 38.212 47.1301 36.928 46.2181 36.04C45.3301 35.128 44.1781 34.672 42.7621 34.672C41.3701 34.672 40.2181 35.128 39.3061 36.04C38.3941 36.928 37.9381 38.212 37.9381 39.892V40.252C37.9381 41.932 38.3941 43.228 39.3061 44.14C40.2181 45.028 41.3701 45.472 42.7621 45.472ZM64.6971 49.504C62.9691 49.504 61.3971 49.144 59.9811 48.424C58.5891 47.704 57.4851 46.66 56.6691 45.292C55.8531 43.924 55.4451 42.268 55.4451 40.324V39.82C55.4451 37.876 55.8531 36.22 56.6691 34.852C57.4851 33.484 58.5891 32.44 59.9811 31.72C61.3971 31 62.9691 30.64 64.6971 30.64C66.4011 30.64 67.8651 30.94 69.0891 31.54C70.3131 32.14 71.2971 32.968 72.0411 34.024C72.8091 35.056 73.3131 36.232 73.5531 37.552L69.1611 38.488C69.0651 37.768 68.8491 37.12 68.5131 36.544C68.1771 35.968 67.6971 35.512 67.0731 35.176C66.4731 34.84 65.7171 34.672 64.8051 34.672C63.8931 34.672 63.0651 34.876 62.3211 35.284C61.6011 35.668 61.0251 36.256 60.5931 37.048C60.1851 37.816 59.9811 38.764 59.9811 39.892V40.252C59.9811 41.38 60.1851 42.34 60.5931 43.132C61.0251 43.9 61.6011 44.488 62.3211 44.896C63.0651 45.28 63.8931 45.472 64.8051 45.472C66.1731 45.472 67.2051 45.124 67.9011 44.428C68.6211 43.708 69.0771 42.772 69.2691 41.62L73.6611 42.664C73.3491 43.936 72.8091 45.1 72.0411 46.156C71.2971 47.188 70.3131 48.004 69.0891 48.604C67.8651 49.204 66.4011 49.504 64.6971 49.504ZM77.4028 49V23.8H81.9388V37.732H82.5868L88.4908 31.144H94.3948L86.1508 39.784L94.6828 49H88.8508L82.5868 41.908H81.9388V49H77.4028ZM97.5791 49V23.8H102.331V49H97.5791ZM107.215 49V31.144H111.679V33.484H112.327C112.615 32.86 113.155 32.272 113.947 31.72C114.739 31.144 115.939 30.856 117.547 30.856C118.939 30.856 120.151 31.18 121.183 31.828C122.239 32.452 123.055 33.328 123.631 34.456C124.207 35.56 124.495 36.856 124.495 38.344V49H119.959V38.704C119.959 37.36 119.623 36.352 118.951 35.68C118.303 35.008 117.367 34.672 116.143 34.672C114.751 34.672 113.671 35.14 112.903 36.076C112.135 36.988 111.751 38.272 111.751 39.928V49H107.215Z" fill="#333333"/>
<path d="M99.0621 12.5345C99.3843 11.6639 100.616 11.6639 100.938 12.5345L101.461 13.9482C101.562 14.2219 101.778 14.4377 102.052 14.539L103.465 15.0621C104.336 15.3843 104.336 16.6157 103.465 16.9379L102.052 17.461C101.778 17.5623 101.562 17.7781 101.461 18.0518L100.938 19.4655C100.616 20.3361 99.3843 20.3361 99.0621 19.4655L98.539 18.0518C98.4377 17.7781 98.2219 17.5623 97.9482 17.461L96.5345 16.9379C95.6639 16.6157 95.6639 15.3843 96.5345 15.0621L97.9482 14.539C98.2219 14.4377 98.4377 14.2219 98.539 13.9482L99.0621 12.5345Z" fill="url(#paint0_linear_38_40)"/>
<path d="M95.0621 2.5345C95.3843 1.66389 96.6157 1.66389 96.9379 2.53451L98.0012 5.40803C98.1024 5.68175 98.3182 5.89756 98.592 5.99885L101.465 7.06215C102.336 7.38431 102.336 8.61569 101.465 8.93785L98.592 10.0012C98.3182 10.1024 98.1024 10.3182 98.0012 10.592L96.9379 13.4655C96.6157 14.3361 95.3843 14.3361 95.0621 13.4655L93.9988 10.592C93.8976 10.3182 93.6818 10.1024 93.408 10.0012L90.5345 8.93785C89.6639 8.61569 89.6639 7.38431 90.5345 7.06215L93.408 5.99885C93.6818 5.89756 93.8976 5.68175 93.9988 5.40803L95.0621 2.5345Z" fill="url(#paint1_linear_38_40)"/>
<path d="M102 49H98C97.4477 49 97 48.5523 97 48V24C97 23.4477 97.4477 23 98 23H102C102.552 23 103 23.4477 103 24V48C103 48.5523 102.552 49 102 49Z" fill="#333333"/>
<mask id="path-5-inside-1_38_40" fill="white">
<path d="M97 24C97 23.4477 97.4477 23 98 23H102C102.552 23 103 23.4477 103 24V26C103 26.5523 102.552 27 102 27H98C97.4477 27 97 26.5523 97 26V24Z"/>
</mask>
<path d="M97 24C97 23.4477 97.4477 23 98 23H102C102.552 23 103 23.4477 103 24V26C103 26.5523 102.552 27 102 27H98C97.4477 27 97 26.5523 97 26V24Z" fill="white"/>
<path d="M96 24C96 22.8954 96.8954 22 98 22H102C103.105 22 104 22.8954 104 24H102H98H96ZM103 27H97H103ZM98 27C96.8954 27 96 26.1046 96 25V24C96 22.8954 96.8954 22 98 22V24V26C98 26.5523 98 27 98 27ZM102 22C103.105 22 104 22.8954 104 24V25C104 26.1046 103.105 27 102 27C102 27 102 26.5523 102 26V24V22Z" fill="#333333" mask="url(#path-5-inside-1_38_40)"/>
<path d="M5.665 65.21C4.875 65.21 4.175 65.07 3.565 64.79C2.955 64.51 2.475 64.1 2.125 63.56C1.785 63.01 1.615 62.345 1.615 61.565V61.19H3.22V61.565C3.22 62.305 3.44 62.86 3.88 63.23C4.33 63.6 4.925 63.785 5.665 63.785C6.415 63.785 6.98 63.63 7.36 63.32C7.74 63 7.93 62.59 7.93 62.09C7.93 61.76 7.84 61.49 7.66 61.28C7.48 61.07 7.225 60.905 6.895 60.785C6.565 60.655 6.17 60.535 5.71 60.425L5.155 60.29C4.485 60.13 3.9 59.935 3.4 59.705C2.91 59.465 2.53 59.15 2.26 58.76C1.99 58.37 1.855 57.87 1.855 57.26C1.855 56.64 2.005 56.11 2.305 55.67C2.615 55.23 3.04 54.89 3.58 54.65C4.12 54.41 4.755 54.29 5.485 54.29C6.215 54.29 6.865 54.415 7.435 54.665C8.015 54.915 8.47 55.285 8.8 55.775C9.13 56.265 9.295 56.88 9.295 57.62V58.16H7.69V57.62C7.69 57.17 7.595 56.805 7.405 56.525C7.225 56.245 6.97 56.04 6.64 55.91C6.31 55.78 5.925 55.715 5.485 55.715C4.845 55.715 4.345 55.85 3.985 56.12C3.635 56.38 3.46 56.745 3.46 57.215C3.46 57.535 3.535 57.8 3.685 58.01C3.845 58.21 4.075 58.375 4.375 58.505C4.675 58.635 5.05 58.75 5.5 58.85L6.055 58.985C6.735 59.135 7.335 59.33 7.855 59.57C8.375 59.8 8.785 60.115 9.085 60.515C9.385 60.915 9.535 61.43 9.535 62.06C9.535 62.69 9.375 63.24 9.055 63.71C8.745 64.18 8.3 64.55 7.72 64.82C7.14 65.08 6.455 65.21 5.665 65.21ZM11.2806 65V57.605H12.8256V65H11.2806ZM12.0606 56.6C11.7606 56.6 11.5056 56.505 11.2956 56.315C11.0956 56.115 10.9956 55.86 10.9956 55.55C10.9956 55.24 11.0956 54.99 11.2956 54.8C11.5056 54.6 11.7606 54.5 12.0606 54.5C12.3706 54.5 12.6256 54.6 12.8256 54.8C13.0256 54.99 13.1256 55.24 13.1256 55.55C13.1256 55.86 13.0256 56.115 12.8256 56.315C12.6256 56.505 12.3706 56.6 12.0606 56.6ZM15.1185 65V57.605H16.6335V58.475H16.8735C17.0135 58.215 17.2385 57.985 17.5485 57.785C17.8585 57.585 18.2785 57.485 18.8085 57.485C19.3585 57.485 19.7985 57.6 20.1285 57.83C20.4685 58.05 20.7235 58.335 20.8935 58.685H21.1335C21.3035 58.345 21.5485 58.06 21.8685 57.83C22.1985 57.6 22.6635 57.485 23.2635 57.485C23.7435 57.485 24.1685 57.585 24.5385 57.785C24.9085 57.975 25.2035 58.265 25.4235 58.655C25.6435 59.035 25.7535 59.51 25.7535 60.08V65H24.2085V60.2C24.2085 59.75 24.0835 59.405 23.8335 59.165C23.5935 58.915 23.2485 58.79 22.7985 58.79C22.3185 58.79 21.9335 58.945 21.6435 59.255C21.3535 59.565 21.2085 60.01 21.2085 60.59V65H19.6635V60.2C19.6635 59.75 19.5385 59.405 19.2885 59.165C19.0485 58.915 18.7035 58.79 18.2535 58.79C17.7735 58.79 17.3885 58.945 17.0985 59.255C16.8085 59.565 16.6635 60.01 16.6635 60.59V65H15.1185ZM30.6977 65.135C30.1377 65.135 29.6377 65.01 29.1977 64.76C28.7577 64.51 28.4127 64.155 28.1627 63.695C27.9127 63.235 27.7877 62.685 27.7877 62.045V57.605H29.3327V61.94C29.3327 62.58 29.4927 63.055 29.8127 63.365C30.1327 63.665 30.5777 63.815 31.1477 63.815C31.7777 63.815 32.2827 63.605 32.6627 63.185C33.0527 62.755 33.2477 62.14 33.2477 61.34V57.605H34.7927V65H33.2777V63.89H33.0377C32.8977 64.19 32.6477 64.475 32.2877 64.745C31.9277 65.005 31.3977 65.135 30.6977 65.135ZM37.0765 65V54.5H38.6215V65H37.0765ZM44.3044 65.21C43.5544 65.21 42.8994 65.055 42.3394 64.745C41.7794 64.425 41.3394 63.98 41.0194 63.41C40.7094 62.83 40.5544 62.16 40.5544 61.4V61.22C40.5544 60.45 40.7094 59.78 41.0194 59.21C41.3294 58.63 41.7594 58.185 42.3094 57.875C42.8694 57.555 43.5144 57.395 44.2444 57.395C44.9544 57.395 45.5744 57.555 46.1044 57.875C46.6444 58.185 47.0644 58.62 47.3644 59.18C47.6644 59.74 47.8144 60.395 47.8144 61.145V61.73H42.1294C42.1494 62.38 42.3644 62.9 42.7744 63.29C43.1944 63.67 43.7144 63.86 44.3344 63.86C44.9144 63.86 45.3494 63.73 45.6394 63.47C45.9394 63.21 46.1694 62.91 46.3294 62.57L47.6044 63.23C47.4644 63.51 47.2594 63.805 46.9894 64.115C46.7294 64.425 46.3844 64.685 45.9544 64.895C45.5244 65.105 44.9744 65.21 44.3044 65.21ZM42.1444 60.545H46.2394C46.1994 59.985 45.9994 59.55 45.6394 59.24C45.2794 58.92 44.8094 58.76 44.2294 58.76C43.6494 58.76 43.1744 58.92 42.8044 59.24C42.4444 59.55 42.2244 59.985 42.1444 60.545ZM50.5016 65.21C50.1516 65.21 49.8566 65.095 49.6166 64.865C49.3866 64.635 49.2716 64.34 49.2716 63.98C49.2716 63.62 49.3866 63.33 49.6166 63.11C49.8566 62.88 50.1516 62.765 50.5016 62.765C50.8516 62.765 51.1416 62.88 51.3716 63.11C51.6116 63.34 51.7316 63.63 51.7316 63.98C51.7316 64.34 51.6116 64.635 51.3716 64.865C51.1416 65.095 50.8516 65.21 50.5016 65.21ZM57.0266 65V54.5H61.1966C61.8366 54.5 62.4066 54.63 62.9066 54.89C63.4166 55.14 63.8116 55.5 64.0916 55.97C64.3816 56.43 64.5266 56.985 64.5266 57.635V57.83C64.5266 58.48 64.3766 59.04 64.0766 59.51C63.7866 59.98 63.3916 60.34 62.8916 60.59C62.3916 60.84 61.8266 60.965 61.1966 60.965H58.6466V65H57.0266ZM58.6466 59.495H61.0316C61.6016 59.495 62.0566 59.345 62.3966 59.045C62.7366 58.745 62.9066 58.335 62.9066 57.815V57.665C62.9066 57.135 62.7366 56.72 62.3966 56.42C62.0566 56.12 61.6016 55.97 61.0316 55.97H58.6466V59.495ZM66.1097 65V57.605H67.6247V58.475H67.8647C67.9847 58.165 68.1747 57.94 68.4347 57.8C68.7047 57.65 69.0347 57.575 69.4247 57.575H70.3097V58.97H69.3647C68.8647 58.97 68.4547 59.11 68.1347 59.39C67.8147 59.66 67.6547 60.08 67.6547 60.65V65H66.1097ZM75.1118 65.21C74.3718 65.21 73.7118 65.06 73.1318 64.76C72.5618 64.45 72.1118 64.01 71.7818 63.44C71.4518 62.87 71.2868 62.195 71.2868 61.415V61.19C71.2868 60.41 71.4518 59.74 71.7818 59.18C72.1118 58.61 72.5618 58.17 73.1318 57.86C73.7118 57.55 74.3718 57.395 75.1118 57.395C75.8518 57.395 76.5118 57.55 77.0918 57.86C77.6718 58.17 78.1268 58.61 78.4568 59.18C78.7868 59.74 78.9518 60.41 78.9518 61.19V61.415C78.9518 62.195 78.7868 62.87 78.4568 63.44C78.1268 64.01 77.6718 64.45 77.0918 64.76C76.5118 65.06 75.8518 65.21 75.1118 65.21ZM75.1118 63.83C75.7918 63.83 76.3418 63.615 76.7618 63.185C77.1918 62.745 77.4068 62.14 77.4068 61.37V61.235C77.4068 60.465 77.1968 59.865 76.7768 59.435C76.3568 58.995 75.8018 58.775 75.1118 58.775C74.4418 58.775 73.8918 58.995 73.4618 59.435C73.0418 59.865 72.8318 60.465 72.8318 61.235V61.37C72.8318 62.14 73.0418 62.745 73.4618 63.185C73.8918 63.615 74.4418 63.83 75.1118 63.83ZM80.5154 61.34V61.115C80.5154 60.335 80.6704 59.67 80.9804 59.12C81.3004 58.57 81.7204 58.145 82.2404 57.845C82.7604 57.545 83.3304 57.395 83.9504 57.395C84.6704 57.395 85.2204 57.53 85.6004 57.8C85.9904 58.07 86.2754 58.36 86.4554 58.67H86.6954V57.605H88.1954V66.515C88.1954 66.965 88.0604 67.325 87.7904 67.595C87.5304 67.865 87.1704 68 86.7104 68H81.7304V66.65H86.2304C86.5204 66.65 86.6654 66.5 86.6654 66.2V63.845H86.4254C86.3154 64.025 86.1604 64.21 85.9604 64.4C85.7604 64.59 85.4954 64.745 85.1654 64.865C84.8454 64.985 84.4404 65.045 83.9504 65.045C83.3304 65.045 82.7554 64.9 82.2254 64.61C81.7054 64.31 81.2904 63.885 80.9804 63.335C80.6704 62.775 80.5154 62.11 80.5154 61.34ZM84.3704 63.695C85.0404 63.695 85.5904 63.485 86.0204 63.065C86.4604 62.635 86.6804 62.045 86.6804 61.295V61.16C86.6804 60.39 86.4654 59.8 86.0354 59.39C85.6054 58.97 85.0504 58.76 84.3704 58.76C83.7104 58.76 83.1604 58.97 82.7204 59.39C82.2904 59.8 82.0754 60.39 82.0754 61.16V61.295C82.0754 62.045 82.2904 62.635 82.7204 63.065C83.1604 63.485 83.7104 63.695 84.3704 63.695ZM90.4701 65V57.605H91.9851V58.475H92.2251C92.3451 58.165 92.5351 57.94 92.7951 57.8C93.0651 57.65 93.3951 57.575 93.7851 57.575H94.6701V58.97H93.7251C93.2251 58.97 92.8151 59.11 92.4951 59.39C92.1751 59.66 92.0151 60.08 92.0151 60.65V65H90.4701ZM99.3972 65.21C98.6472 65.21 97.9922 65.055 97.4322 64.745C96.8722 64.425 96.4322 63.98 96.1122 63.41C95.8022 62.83 95.6472 62.16 95.6472 61.4V61.22C95.6472 60.45 95.8022 59.78 96.1122 59.21C96.4222 58.63 96.8522 58.185 97.4022 57.875C97.9622 57.555 98.6072 57.395 99.3372 57.395C100.047 57.395 100.667 57.555 101.197 57.875C101.737 58.185 102.157 58.62 102.457 59.18C102.757 59.74 102.907 60.395 102.907 61.145V61.73H97.2222C97.2422 62.38 97.4572 62.9 97.8672 63.29C98.2872 63.67 98.8072 63.86 99.4272 63.86C100.007 63.86 100.442 63.73 100.732 63.47C101.032 63.21 101.262 62.91 101.422 62.57L102.697 63.23C102.557 63.51 102.352 63.805 102.082 64.115C101.822 64.425 101.477 64.685 101.047 64.895C100.617 65.105 100.067 65.21 99.3972 65.21ZM97.2372 60.545H101.332C101.292 59.985 101.092 59.55 100.732 59.24C100.372 58.92 99.9022 58.76 99.3222 58.76C98.7422 58.76 98.2672 58.92 97.8972 59.24C97.5372 59.55 97.3172 59.985 97.2372 60.545ZM107.797 65.21C106.857 65.21 106.077 65 105.457 64.58C104.837 64.16 104.457 63.525 104.317 62.675L105.757 62.33C105.837 62.74 105.972 63.065 106.162 63.305C106.352 63.545 106.587 63.715 106.867 63.815C107.157 63.915 107.467 63.965 107.797 63.965C108.287 63.965 108.662 63.87 108.922 63.68C109.192 63.49 109.327 63.245 109.327 62.945C109.327 62.645 109.202 62.425 108.952 62.285C108.702 62.145 108.332 62.03 107.842 61.94L107.332 61.85C106.832 61.76 106.377 61.63 105.967 61.46C105.557 61.29 105.232 61.055 104.992 60.755C104.752 60.455 104.632 60.07 104.632 59.6C104.632 58.9 104.892 58.36 105.412 57.98C105.932 57.59 106.622 57.395 107.482 57.395C108.312 57.395 108.992 57.585 109.522 57.965C110.062 58.335 110.412 58.84 110.572 59.48L109.132 59.885C109.042 59.435 108.852 59.12 108.562 58.94C108.272 58.75 107.912 58.655 107.482 58.655C107.062 58.655 106.732 58.735 106.492 58.895C106.252 59.045 106.132 59.26 106.132 59.54C106.132 59.84 106.247 60.06 106.477 60.2C106.717 60.34 107.037 60.445 107.437 60.515L107.962 60.605C108.492 60.695 108.977 60.82 109.417 60.98C109.857 61.14 110.202 61.37 110.452 61.67C110.712 61.97 110.842 62.37 110.842 62.87C110.842 63.61 110.567 64.185 110.017 64.595C109.467 65.005 108.727 65.21 107.797 65.21ZM115.678 65.21C114.738 65.21 113.958 65 113.338 64.58C112.718 64.16 112.338 63.525 112.198 62.675L113.638 62.33C113.718 62.74 113.853 63.065 114.043 63.305C114.233 63.545 114.468 63.715 114.748 63.815C115.038 63.915 115.348 63.965 115.678 63.965C116.168 63.965 116.543 63.87 116.803 63.68C117.073 63.49 117.208 63.245 117.208 62.945C117.208 62.645 117.083 62.425 116.833 62.285C116.583 62.145 116.213 62.03 115.723 61.94L115.213 61.85C114.713 61.76 114.258 61.63 113.848 61.46C113.438 61.29 113.113 61.055 112.873 60.755C112.633 60.455 112.513 60.07 112.513 59.6C112.513 58.9 112.773 58.36 113.293 57.98C113.813 57.59 114.503 57.395 115.363 57.395C116.193 57.395 116.873 57.585 117.403 57.965C117.943 58.335 118.293 58.84 118.453 59.48L117.013 59.885C116.923 59.435 116.733 59.12 116.443 58.94C116.153 58.75 115.793 58.655 115.363 58.655C114.943 58.655 114.613 58.735 114.373 58.895C114.133 59.045 114.013 59.26 114.013 59.54C114.013 59.84 114.128 60.06 114.358 60.2C114.598 60.34 114.918 60.445 115.318 60.515L115.843 60.605C116.373 60.695 116.858 60.82 117.298 60.98C117.738 61.14 118.083 61.37 118.333 61.67C118.593 61.97 118.723 62.37 118.723 62.87C118.723 63.61 118.448 64.185 117.898 64.595C117.348 65.005 116.608 65.21 115.678 65.21ZM123.919 65.21C123.169 65.21 122.514 65.055 121.954 64.745C121.394 64.425 120.954 63.98 120.634 63.41C120.324 62.83 120.169 62.16 120.169 61.4V61.22C120.169 60.45 120.324 59.78 120.634 59.21C120.944 58.63 121.374 58.185 121.924 57.875C122.484 57.555 123.129 57.395 123.859 57.395C124.569 57.395 125.189 57.555 125.719 57.875C126.259 58.185 126.679 58.62 126.979 59.18C127.279 59.74 127.429 60.395 127.429 61.145V61.73H121.744C121.764 62.38 121.979 62.9 122.389 63.29C122.809 63.67 123.329 63.86 123.949 63.86C124.529 63.86 124.964 63.73 125.254 63.47C125.554 63.21 125.784 62.91 125.944 62.57L127.219 63.23C127.079 63.51 126.874 63.805 126.604 64.115C126.344 64.425 125.999 64.685 125.569 64.895C125.139 65.105 124.589 65.21 123.919 65.21ZM121.759 60.545H125.854C125.814 59.985 125.614 59.55 125.254 59.24C124.894 58.92 124.424 58.76 123.844 58.76C123.264 58.76 122.789 58.92 122.419 59.24C122.059 59.55 121.839 59.985 121.759 60.545ZM130.116 65.21C129.766 65.21 129.471 65.095 129.231 64.865C129.001 64.635 128.886 64.34 128.886 63.98C128.886 63.62 129.001 63.33 129.231 63.11C129.471 62.88 129.766 62.765 130.116 62.765C130.466 62.765 130.756 62.88 130.986 63.11C131.226 63.34 131.346 63.63 131.346 63.98C131.346 64.34 131.226 64.635 130.986 64.865C130.756 65.095 130.466 65.21 130.116 65.21ZM136.641 65V54.5H141.051C141.701 54.5 142.271 54.615 142.761 54.845C143.261 55.065 143.646 55.385 143.916 55.805C144.196 56.225 144.336 56.725 144.336 57.305V57.47C144.336 58.13 144.176 58.66 143.856 59.06C143.546 59.45 143.166 59.725 142.716 59.885V60.125C143.096 60.145 143.401 60.275 143.631 60.515C143.861 60.745 143.976 61.08 143.976 61.52V65H142.341V61.745C142.341 61.475 142.271 61.26 142.131 61.1C141.991 60.94 141.766 60.86 141.456 60.86H138.261V65H136.641ZM138.261 59.39H140.871C141.451 59.39 141.901 59.245 142.221 58.955C142.541 58.655 142.701 58.25 142.701 57.74V57.62C142.701 57.11 142.541 56.71 142.221 56.42C141.911 56.12 141.461 55.97 140.871 55.97H138.261V59.39ZM149.553 65.21C148.803 65.21 148.148 65.055 147.588 64.745C147.028 64.425 146.588 63.98 146.268 63.41C145.958 62.83 145.803 62.16 145.803 61.4V61.22C145.803 60.45 145.958 59.78 146.268 59.21C146.578 58.63 147.008 58.185 147.558 57.875C148.118 57.555 148.763 57.395 149.493 57.395C150.203 57.395 150.823 57.555 151.353 57.875C151.893 58.185 152.313 58.62 152.613 59.18C152.913 59.74 153.063 60.395 153.063 61.145V61.73H147.378C147.398 62.38 147.613 62.9 148.023 63.29C148.443 63.67 148.963 63.86 149.583 63.86C150.163 63.86 150.598 63.73 150.888 63.47C151.188 63.21 151.418 62.91 151.578 62.57L152.853 63.23C152.713 63.51 152.508 63.805 152.238 64.115C151.978 64.425 151.633 64.685 151.203 64.895C150.773 65.105 150.223 65.21 149.553 65.21ZM147.393 60.545H151.488C151.448 59.985 151.248 59.55 150.888 59.24C150.528 58.92 150.058 58.76 149.478 58.76C148.898 58.76 148.423 58.92 148.053 59.24C147.693 59.55 147.473 59.985 147.393 60.545ZM148.518 56.705L149.643 54.56H151.428L149.913 56.705H148.518ZM157.758 65.135C157.198 65.135 156.698 65.01 156.258 64.76C155.818 64.51 155.473 64.155 155.223 63.695C154.973 63.235 154.848 62.685 154.848 62.045V57.605H156.393V61.94C156.393 62.58 156.553 63.055 156.873 63.365C157.193 63.665 157.638 63.815 158.208 63.815C158.838 63.815 159.343 63.605 159.723 63.185C160.113 62.755 160.308 62.14 160.308 61.34V57.605H161.853V65H160.338V63.89H160.098C159.958 64.19 159.708 64.475 159.348 64.745C158.988 65.005 158.458 65.135 157.758 65.135ZM167.167 65.21C166.227 65.21 165.447 65 164.827 64.58C164.207 64.16 163.827 63.525 163.687 62.675L165.127 62.33C165.207 62.74 165.342 63.065 165.532 63.305C165.722 63.545 165.957 63.715 166.237 63.815C166.527 63.915 166.837 63.965 167.167 63.965C167.657 63.965 168.032 63.87 168.292 63.68C168.562 63.49 168.697 63.245 168.697 62.945C168.697 62.645 168.572 62.425 168.322 62.285C168.072 62.145 167.702 62.03 167.212 61.94L166.702 61.85C166.202 61.76 165.747 61.63 165.337 61.46C164.927 61.29 164.602 61.055 164.362 60.755C164.122 60.455 164.002 60.07 164.002 59.6C164.002 58.9 164.262 58.36 164.782 57.98C165.302 57.59 165.992 57.395 166.852 57.395C167.682 57.395 168.362 57.585 168.892 57.965C169.432 58.335 169.782 58.84 169.942 59.48L168.502 59.885C168.412 59.435 168.222 59.12 167.932 58.94C167.642 58.75 167.282 58.655 166.852 58.655C166.432 58.655 166.102 58.735 165.862 58.895C165.622 59.045 165.502 59.26 165.502 59.54C165.502 59.84 165.617 60.06 165.847 60.2C166.087 60.34 166.407 60.445 166.807 60.515L167.332 60.605C167.862 60.695 168.347 60.82 168.787 60.98C169.227 61.14 169.572 61.37 169.822 61.67C170.082 61.97 170.212 62.37 170.212 62.87C170.212 63.61 169.937 64.185 169.387 64.595C168.837 65.005 168.097 65.21 167.167 65.21ZM175.048 65.21C174.108 65.21 173.328 65 172.708 64.58C172.088 64.16 171.708 63.525 171.568 62.675L173.008 62.33C173.088 62.74 173.223 63.065 173.413 63.305C173.603 63.545 173.838 63.715 174.118 63.815C174.408 63.915 174.718 63.965 175.048 63.965C175.538 63.965 175.913 63.87 176.173 63.68C176.443 63.49 176.578 63.245 176.578 62.945C176.578 62.645 176.453 62.425 176.203 62.285C175.953 62.145 175.583 62.03 175.093 61.94L174.583 61.85C174.083 61.76 173.628 61.63 173.218 61.46C172.808 61.29 172.483 61.055 172.243 60.755C172.003 60.455 171.883 60.07 171.883 59.6C171.883 58.9 172.143 58.36 172.663 57.98C173.183 57.59 173.873 57.395 174.733 57.395C175.563 57.395 176.243 57.585 176.773 57.965C177.313 58.335 177.663 58.84 177.823 59.48L176.383 59.885C176.293 59.435 176.103 59.12 175.813 58.94C175.523 58.75 175.163 58.655 174.733 58.655C174.313 58.655 173.983 58.735 173.743 58.895C173.503 59.045 173.383 59.26 173.383 59.54C173.383 59.84 173.498 60.06 173.728 60.2C173.968 60.34 174.288 60.445 174.688 60.515L175.213 60.605C175.743 60.695 176.228 60.82 176.668 60.98C177.108 61.14 177.453 61.37 177.703 61.67C177.963 61.97 178.093 62.37 178.093 62.87C178.093 63.61 177.818 64.185 177.268 64.595C176.718 65.005 175.978 65.21 175.048 65.21ZM179.899 65V57.605H181.444V65H179.899ZM180.679 56.6C180.379 56.6 180.124 56.505 179.914 56.315C179.714 56.115 179.614 55.86 179.614 55.55C179.614 55.24 179.714 54.99 179.914 54.8C180.124 54.6 180.379 54.5 180.679 54.5C180.989 54.5 181.244 54.6 181.444 54.8C181.644 54.99 181.744 55.24 181.744 55.55C181.744 55.86 181.644 56.115 181.444 56.315C181.244 56.505 180.989 56.6 180.679 56.6ZM186.767 65.21C185.827 65.21 185.047 65 184.427 64.58C183.807 64.16 183.427 63.525 183.287 62.675L184.727 62.33C184.807 62.74 184.942 63.065 185.132 63.305C185.322 63.545 185.557 63.715 185.837 63.815C186.127 63.915 186.437 63.965 186.767 63.965C187.257 63.965 187.632 63.87 187.892 63.68C188.162 63.49 188.297 63.245 188.297 62.945C188.297 62.645 188.172 62.425 187.922 62.285C187.672 62.145 187.302 62.03 186.812 61.94L186.302 61.85C185.802 61.76 185.347 61.63 184.937 61.46C184.527 61.29 184.202 61.055 183.962 60.755C183.722 60.455 183.602 60.07 183.602 59.6C183.602 58.9 183.862 58.36 184.382 57.98C184.902 57.59 185.592 57.395 186.452 57.395C187.282 57.395 187.962 57.585 188.492 57.965C189.032 58.335 189.382 58.84 189.542 59.48L188.102 59.885C188.012 59.435 187.822 59.12 187.532 58.94C187.242 58.75 186.882 58.655 186.452 58.655C186.032 58.655 185.702 58.735 185.462 58.895C185.222 59.045 185.102 59.26 185.102 59.54C185.102 59.84 185.217 60.06 185.447 60.2C185.687 60.34 186.007 60.445 186.407 60.515L186.932 60.605C187.462 60.695 187.947 60.82 188.387 60.98C188.827 61.14 189.172 61.37 189.422 61.67C189.682 61.97 189.812 62.37 189.812 62.87C189.812 63.61 189.537 64.185 188.987 64.595C188.437 65.005 187.697 65.21 186.767 65.21ZM192.548 65.21C192.198 65.21 191.903 65.095 191.663 64.865C191.433 64.635 191.318 64.34 191.318 63.98C191.318 63.62 191.433 63.33 191.663 63.11C191.903 62.88 192.198 62.765 192.548 62.765C192.898 62.765 193.188 62.88 193.418 63.11C193.658 63.34 193.778 63.63 193.778 63.98C193.778 64.34 193.658 64.635 193.418 64.865C193.188 65.095 192.898 65.21 192.548 65.21Z" fill="#656565"/>
<defs>
<linearGradient id="paint0_linear_38_40" x1="95.5" y1="11.5" x2="111" y2="23.5" gradientUnits="userSpaceOnUse">
<stop offset="0.0536041" stop-color="#1A3481"/>
<stop offset="0.477169" stop-color="#305DDD"/>
</linearGradient>
<linearGradient id="paint1_linear_38_40" x1="96" y1="-7.26432e-07" x2="128.5" y2="29.5" gradientUnits="userSpaceOnUse">
<stop stop-color="#1C2F66"/>
<stop offset="0.277731" stop-color="#305DDD"/>
</linearGradient>
</defs>
</svg>
