<svg width="127" height="60" viewBox="0 0 127 60" fill="none" xmlns="http://www.w3.org/2000/svg">
<path d="M2.376 49V23.8H11.196L15.552 45.76H16.2L20.556 23.8H29.376V49H24.768V27.292H24.12L19.8 49H11.952L7.632 27.292H6.984V49H2.376ZM42.7621 49.504C40.9861 49.504 39.3901 49.144 37.9741 48.424C36.5581 47.704 35.4421 46.66 34.6261 45.292C33.8101 43.924 33.4021 42.28 33.4021 40.36V39.784C33.4021 37.864 33.8101 36.22 34.6261 34.852C35.4421 33.484 36.5581 32.44 37.9741 31.72C39.3901 31 40.9861 30.64 42.7621 30.64C44.5381 30.64 46.1341 31 47.5501 31.72C48.9661 32.44 50.0821 33.484 50.8981 34.852C51.7141 36.22 52.1221 37.864 52.1221 39.784V40.36C52.1221 42.28 51.7141 43.924 50.8981 45.292C50.0821 46.66 48.9661 47.704 47.5501 48.424C46.1341 49.144 44.5381 49.504 42.7621 49.504ZM42.7621 45.472C44.1541 45.472 45.3061 45.028 46.2181 44.14C47.1301 43.228 47.5861 41.932 47.5861 40.252V39.892C47.5861 38.212 47.1301 36.928 46.2181 36.04C45.3301 35.128 44.1781 34.672 42.7621 34.672C41.3701 34.672 40.2181 35.128 39.3061 36.04C38.3941 36.928 37.9381 38.212 37.9381 39.892V40.252C37.9381 41.932 38.3941 43.228 39.3061 44.14C40.2181 45.028 41.3701 45.472 42.7621 45.472ZM64.6971 49.504C62.9691 49.504 61.3971 49.144 59.9811 48.424C58.5891 47.704 57.4851 46.66 56.6691 45.292C55.8531 43.924 55.4451 42.268 55.4451 40.324V39.82C55.4451 37.876 55.8531 36.22 56.6691 34.852C57.4851 33.484 58.5891 32.44 59.9811 31.72C61.3971 31 62.9691 30.64 64.6971 30.64C66.4011 30.64 67.8651 30.94 69.0891 31.54C70.3131 32.14 71.2971 32.968 72.0411 34.024C72.8091 35.056 73.3131 36.232 73.5531 37.552L69.1611 38.488C69.0651 37.768 68.8491 37.12 68.5131 36.544C68.1771 35.968 67.6971 35.512 67.0731 35.176C66.4731 34.84 65.7171 34.672 64.8051 34.672C63.8931 34.672 63.0651 34.876 62.3211 35.284C61.6011 35.668 61.0251 36.256 60.5931 37.048C60.1851 37.816 59.9811 38.764 59.9811 39.892V40.252C59.9811 41.38 60.1851 42.34 60.5931 43.132C61.0251 43.9 61.6011 44.488 62.3211 44.896C63.0651 45.28 63.8931 45.472 64.8051 45.472C66.1731 45.472 67.2051 45.124 67.9011 44.428C68.6211 43.708 69.0771 42.772 69.2691 41.62L73.6611 42.664C73.3491 43.936 72.8091 45.1 72.0411 46.156C71.2971 47.188 70.3131 48.004 69.0891 48.604C67.8651 49.204 66.4011 49.504 64.6971 49.504ZM77.4028 49V23.8H81.9388V37.732H82.5868L88.4908 31.144H94.3948L86.1508 39.784L94.6828 49H88.8508L82.5868 41.908H81.9388V49H77.4028ZM97.5791 49V23.8H102.331V49H97.5791ZM107.215 49V31.144H111.679V33.484H112.327C112.615 32.86 113.155 32.272 113.947 31.72C114.739 31.144 115.939 30.856 117.547 30.856C118.939 30.856 120.151 31.18 121.183 31.828C122.239 32.452 123.055 33.328 123.631 34.456C124.207 35.56 124.495 36.856 124.495 38.344V49H119.959V38.704C119.959 37.36 119.623 36.352 118.951 35.68C118.303 35.008 117.367 34.672 116.143 34.672C114.751 34.672 113.671 35.14 112.903 36.076C112.135 36.988 111.751 38.272 111.751 39.928V49H107.215Z" fill="white"/>
<path d="M99.0621 12.5345C99.3843 11.6639 100.616 11.6639 100.938 12.5345L101.461 13.9482C101.562 14.2219 101.778 14.4377 102.052 14.539L103.465 15.0621C104.336 15.3843 104.336 16.6157 103.465 16.9379L102.052 17.461C101.778 17.5623 101.562 17.7781 101.461 18.0518L100.938 19.4655C100.616 20.3361 99.3843 20.3361 99.0621 19.4655L98.539 18.0518C98.4377 17.7781 98.2219 17.5623 97.9482 17.461L96.5345 16.9379C95.6639 16.6157 95.6639 15.3843 96.5345 15.0621L97.9482 14.539C98.2219 14.4377 98.4377 14.2219 98.539 13.9482L99.0621 12.5345Z" fill="white"/>
<path d="M95.0621 2.5345C95.3843 1.66389 96.6157 1.66389 96.9379 2.53451L98.0012 5.40803C98.1024 5.68175 98.3182 5.89756 98.592 5.99885L101.465 7.06215C102.336 7.38431 102.336 8.61569 101.465 8.93785L98.592 10.0012C98.3182 10.1024 98.1024 10.3182 98.0012 10.592L96.9379 13.4655C96.6157 14.3361 95.3843 14.3361 95.0621 13.4655L93.9988 10.592C93.8976 10.3182 93.6818 10.1024 93.408 10.0012L90.5345 8.93785C89.6639 8.61569 89.6639 7.38431 90.5345 7.06215L93.408 5.99885C93.6818 5.89756 93.8976 5.68175 93.9988 5.40803L95.0621 2.5345Z" fill="white"/>
<path d="M102 49H98C97.4477 49 97 48.5523 97 48V24C97 23.4477 97.4477 23 98 23H102C102.552 23 103 23.4477 103 24V48C103 48.5523 102.552 49 102 49Z" fill="white"/>
<mask id="path-5-inside-1_168_14" fill="white">
<path d="M97 24C97 23.4477 97.4477 23 98 23H102C102.552 23 103 23.4477 103 24V26C103 26.5523 102.552 27 102 27H98C97.4477 27 97 26.5523 97 26V24Z"/>
</mask>
<path d="M97 24C97 23.4477 97.4477 23 98 23H102C102.552 23 103 23.4477 103 24V26C103 26.5523 102.552 27 102 27H98C97.4477 27 97 26.5523 97 26V24Z" fill="white"/>
<path d="M96 24C96 22.8954 96.8954 22 98 22H102C103.105 22 104 22.8954 104 24H102H98H96ZM103 27H97H103ZM98 27C96.8954 27 96 26.1046 96 25V24C96 22.8954 96.8954 22 98 22V24V26C98 26.5523 98 27 98 27ZM102 22C103.105 22 104 22.8954 104 24V25C104 26.1046 103.105 27 102 27C102 27 102 26.5523 102 26V24V22Z" fill="white" mask="url(#path-5-inside-1_168_14)"/>
</svg>
