<svg width="1728" height="477" viewBox="0 0 1728 477" fill="none" xmlns="http://www.w3.org/2000/svg">
<path d="M-51 153.349C-8.0824 273.883 125.817 460.699 328.723 475.193C584.921 493.494 767.92 193.737 901.901 273.252C1076.59 376.923 1137.82 139.703 1295.35 204.465C1462.66 273.252 1846.96 118.009 1732.59 66.8931" stroke="#E0E7FF"/>
<path d="M-51 121.796C-8.0824 242.329 131.999 436.698 328.723 443.64C582.878 452.608 706.485 181.747 901.901 241.698C1097.32 301.65 1125.42 152.718 1295.35 172.912C1465.28 193.106 1732.59 186.796 1732.59 35.3397" stroke="#E0E7FF"/>
<path d="M-51 86.4561C-8.0824 206.99 243.759 436.067 346.369 417.135C582.06 373.649 804.046 80.784 962.03 206.99C1052.88 279.562 1131.19 90.6255 1295.35 137.572C1500.57 196.262 1732.59 151.456 1732.59 0" stroke="#E0E7FF"/>
</svg>
